Coordinates
version=1
nRows=12
nColumns=34
inDegrees=no

Units are S.I. units (second, meters, Newtons, ...)
If the header above contains a line with 'inDegrees', this indicates whether rotational values are in degrees (yes) or radians (no).

endheader
time	pelvis_tilt	pelvis_list	pelvis_rotation	pelvis_tx	pelvis_ty	pelvis_tz	hip_flexion_r	hip_adduction_r	hip_rotation_r	knee_angle_r	ankle_angle_r	subtalar_angle_r	mtp_angle_r	hip_flexion_l	hip_adduction_l	hip_rotation_l	knee_angle_l	ankle_angle_l	subtalar_angle_l	mtp_angle_l	lumbar_extension	lumbar_bending	lumbar_rotation	arm_flex_r	arm_add_r	arm_rot_r	elbow_flex_r	pro_sup_r	arm_flex_l	arm_add_l	arm_rot_l	elbow_flex_l	pro_sup_l
0.03	-0.013971	-0.0163366	0.191438	-0.2462	0.879145	-0.230089	0.501987	-0.0516079	-0.322082	0.00717762	0.131994	0.202848	-0.0101406	-0.163184	-0.0777564	-0.216482	0.302961	0.557897	0.565009	-0.0101771	-0.156731	0.00956501	-0.166586	-0.281692	-0.235845	0.107675	0.521476	1.80131	0.337777	-0.264778	0.190591	0.965926	1.84384
0.04	-0.0135852	-0.0183246	0.200563	-0.228909	0.886326	-0.229807	0.505495	-0.0578143	-0.339467	0.0285538	0.134368	0.194572	-0.0101374	-0.177082	-0.0866617	-0.201938	0.310779	0.562508	0.555886	-0.0101738	-0.155765	0.0131677	-0.172494	-0.293888	-0.232103	0.0946408	0.519657	1.80003	0.339662	-0.261408	0.184687	0.974956	1.84573
0.05	-0.0131846	-0.0213057	0.208346	-0.211596	0.892625	-0.229377	0.509267	-0.061779	-0.351962	0.0526296	0.129938	0.178846	-0.0101341	-0.188941	-0.0961859	-0.186902	0.321692	0.561595	0.542638	-0.0101706	-0.154299	0.0176038	-0.177647	-0.304753	-0.22868	0.0830454	0.518175	1.79856	0.338653	-0.257923	0.177454	0.983724	1.84707
0.06	-0.0127692	-0.0252902	0.214784	-0.19427	0.898089	-0.228794	0.513303	-0.0634779	-0.359603	0.0793193	0.118833	0.155828	-0.0101309	-0.198713	-0.106341	-0.171416	0.335766	0.555112	0.525305	-0.0101673	-0.152343	0.0228765	-0.18204	-0.314266	-0.225576	0.0729051	0.517009	1.79691	0.33477	-0.254329	0.168911	0.992216	1.84786
0.07	-0.012341	-0.0302936	0.219866	-0.176945	0.902776	-0.228051	0.517593	-0.0628553	-0.362524	0.108381	0.101509	0.126024	-0.0101277	-0.206262	-0.117159	-0.155596	0.353196	0.542919	0.504008	-0.0101641	-0.149931	0.0289985	-0.185669	-0.322366	-0.222797	0.0642538	0.516109	1.79508	0.328074	-0.250644	0.159123	1.00038	1.84812
0.08	-0.0118999	-0.0363298	0.223586	-0.159647	0.906752	-0.227142	0.522107	-0.0598477	-0.36103	0.139414	0.0789078	0.0904131	-0.0101245	-0.211334	-0.128682	-0.139639	0.374333	0.524745	0.478961	-0.0101608	-0.147136	0.0359866	-0.188525	-0.328952	-0.220349	0.0571213	0.5154	1.79312	0.318693	-0.246889	0.148213	1.00813	1.84788
0.09	-0.0114433	-0.0433977	0.225953	-0.142417	0.910092	-0.226062	0.526774	-0.0544218	-0.355633	0.17189	0.0525279	0.0504464	-0.0101213	-0.213564	-0.140943	-0.123784	0.399665	0.500208	0.450458	-0.0101575	-0.144072	0.043852	-0.190603	-0.333897	-0.218236	0.0514932	0.514801	1.79107	0.306837	-0.243083	0.136372	1.01528	1.84721
0.1	-0.0109695	-0.0514669	0.227008	-0.125302	0.912879	-0.224812	0.531467	-0.046608	-0.347033	0.205204	0.0243426	0.00790823	-0.0101181	-0.212505	-0.153944	-0.108276	0.429749	0.468865	0.418826	-0.0101543	-0.140886	0.0525866	-0.191906	-0.337075	-0.216457	0.0472698	0.514261	1.78906	0.2928	-0.239232	0.123859	1.02159	1.84623
0.11	-0.0104891	-0.060469	0.226834	-0.108357	0.915203	-0.223399	0.535995	-0.0365188	-0.33605	0.23869	-0.00341817	-0.0353038	-0.0101149	-0.207664	-0.167636	-0.0933156	0.465117	0.430328	0.384381	-0.010151	-0.137732	0.0621496	-0.192441	-0.338389	-0.21499	0.0442414	0.513784	1.78722	0.276954	-0.23533	0.110992	1.02673	1.84506
0.12	-0.0100353	-0.070292	0.225565	-0.091637	0.91715	-0.22184	0.540106	-0.0243551	-0.323554	0.271633	-0.0285594	-0.0773941	-0.0101117	-0.198558	-0.181901	-0.0790267	0.506158	0.384405	0.347378	-0.0101477	-0.134741	0.0724548	-0.192228	-0.3378	-0.213798	0.0420912	0.51345	1.78573	0.259738	-0.231359	0.0981394	1.03032	1.84388
0.13	-0.00967185	-0.0807788	0.223387	-0.075192	0.918809	-0.220159	0.543502	-0.0104056	-0.310411	0.303278	-0.049212	-0.116828	-0.0101085	-0.184776	-0.196545	-0.065441	0.553011	0.33127	0.307992	-0.0101445	-0.132001	0.0833621	-0.191301	-0.33534	-0.212821	0.0404286	0.513413	1.78475	0.241637	-0.227299	0.0857064	1.03193	1.84281
0.14	-0.00948968	-0.0917283	0.220537	-0.0590656	0.920259	-0.218389	0.545867	0.00495801	-0.297431	0.332852	-0.064054	-0.15242	-0.0101052	-0.166039	-0.211289	-0.0524966	0.605477	0.271624	0.266304	-0.0101412	-0.129541	0.0946729	-0.18971	-0.331112	-0.211988	0.038846	0.513888	1.78444	0.22317	-0.223138	0.0741248	1.03111	1.84194
